<svg xmlns="http://www.w3.org/2000/svg" xmlns:xlink="http://www.w3.org/1999/xlink" version="1.1" style="" xml:space="preserve" width="41" height="69"><rect id="backgroundrect" width="100%" height="100%" x="0" y="0" fill="none" stroke="none" class="" style=""/><g class="currentLayer" style=""><title>Layer 1</title><g id="svg_1" class="" fill="#ffffff" fill-opacity="1"><path d="M41.185350272948504,19.843603949705678 c-0.41185350202996757,-10.46107895156117 -8.566552842223322,-18.9452610933785 -18.9452610933785,-19.76896809743843 c-5.848319728825537,-0.4942242024359606 -11.614268757245078,1.482672607307883 -15.815174477950745,5.436466226795569 c-4.1185350202996736,3.871422919081693 -6.424914631667491,9.143147745065274 -6.424914631667491,14.826726073078826 c0,2.718233113397784 2.2240089109618237,4.942242024359608 4.942242024359608,4.942242024359608 s4.942242024359608,-2.2240089109618237 4.942242024359608,-4.942242024359608 c0,-2.8829745142097716 1.1531898056839085,-5.601207627607556 3.2948280162397388,-7.578104437351399 c2.2240089109618237,-2.0592675101498368 5.189354125577591,-3.047715915021758 8.319440741005339,-2.800603813803778 c5.354095526389577,0.41185350202996757 9.637371947501235,4.942242024359608 9.802113348313224,10.296337550749183 c0.16474140081198735,4.03616431989368 -1.8945261093378503,7.578104437351399 -5.436466226795569,9.47263054668925 C19.60422676657822,33.10528671507062 15.650433147090535,39.77731344795609 15.650433147090535,47.1083057840895 c0,2.718233113397784 2.2240089109618237,4.942242024359608 4.942242024359608,4.942242024359608 s4.942242024359608,-2.2240089109618237 4.942242024359608,-4.942242024359608 c0,-3.706681518269707 1.8945261093378503,-7.083880234915438 5.024612724765603,-8.731294243035308 C37.39629805427282,34.6703300227845 41.43246237416649,27.586449787869057 41.185350272948504,19.843603949705678 z" id="svg_2" fill="#ffffff" fill-opacity="1"/><circle cx="21.416382175510076" cy="62.09977325798033" r="6.589655876159668" id="svg_3" fill="#ffffff" fill-opacity="1"/></g></g></svg>