<svg xmlns="http://www.w3.org/2000/svg" xmlns:xlink="http://www.w3.org/1999/xlink" xmlns:sketch="http://www.bohemiancoding.com/sketch/ns" version="1.1" width="56.47058868408203" height="55.411766052246094" style=""><rect id="backgroundrect" width="100%" height="100%" x="0" y="0" fill="none" stroke="none" class="" style=""/><title>Zen</title><desc>Created with Sketch.</desc><g class="currentLayer" style=""><title>Layer 1</title><g stroke="none" stroke-width="1" fill="#242424" fill-rule="evenodd" sketch:type="MSPage" id="svg_1" class="" fill-opacity="1"><g sketch:type="MSArtboardGroup" fill="#242424" id="svg_2" fill-opacity="1"><path d="M40.5789349,42.26991606102295 C43.9825808,40.09543686102295 44.1716433,40.28397856102295 42.3752891,41.60793686102295 C40.5789349,42.93085356102295 43.7935183,41.04074936102295 42.0919558,42.26991606102295 L41.3357058,43.02616606102295 C41.3357058,43.02616606102295 40.1065391,44.44439526102295 39.2554974,44.53866606102295 C38.4044558,44.63293686102295 40.2002891,44.44439526102295 38.9716433,45.01210356102295 C37.7424766,45.578770261022946 28.7502891,49.63606186102295 14.2008099,39.055332761022946 C18.2669558,45.86262436102295 25.4518516,48.88814526102295 31.5028933,48.982416061022946 C31.5028933,48.982416061022946 29.6112266,48.982416061022946 30.6518516,49.17147856102295 C31.6919558,49.36054106102295 30.1789349,50.77824936102295 21.2914349,47.46991606102295 C21.6706016,48.32043686102295 21.7648724,48.60377026102295 22.8049766,49.17147856102295 C22.8049766,49.17147856102295 11.1752891,45.20012436102295 7.11070578,33.477207761022946 C7.20497661,34.89491606102295 7.29924745,36.50272856102295 7.29924745,36.50272856102295 C7.29924745,36.50272856102295 1.43674745,26.102207761022946 8.43414328,13.244395261022948 C15.4304974,0.38658272102294955 30.8414349,-0.08581311897705035 32.9211224,0.008457721022948839 C35.0013308,0.10272855102294898 46.6294558,2.7501243810229496 49.2768516,5.49231186102295 C51.9247683,8.23345776102295 47.9539349,6.43762436102295 47.9539349,6.43762436102295 C47.9539349,6.43762436102295 46.6294558,7.193874361022949 48.8049766,8.32772856102295 C50.9789349,9.46314526102295 53.3424766,13.244395261022948 51.5456016,11.826166061022949 C49.7497683,10.408457761022948 52.3966433,13.52824936102295 52.6804974,13.71731186102295 C52.9638308,13.906374361022948 48.7096641,11.826166061022949 49.8445599,13.05533276102295 C50.9789349,14.283978561022948 55.8950808,19.67356186102295 54.2883099,21.281374361022948 C52.6804974,22.88814526102295 52.1127891,18.44439526102295 51.8294558,18.16106186102295 C51.5456016,17.87668686102295 52.3034141,24.68449936102295 51.8294558,25.81835356102295 C51.3565391,26.953249361022948 51.4513308,23.26679106102295 50.5065391,22.13189526102295 C49.5612266,20.99752026102295 49.2768516,21.09179106102295 48.6148724,21.09179106102295 C47.9539349,21.09179106102295 46.1575808,19.29595776102295 45.9679974,18.25533276102295 C45.7789349,17.21522856102295 45.2117474,16.93137436102295 44.3601849,16.08085356102295 C43.5096641,15.229811861022949 42.1862266,14.37929106102295 40.5789349,14.47356186102295 C38.9716433,14.568353561022949 39.8226849,12.58241606102295 37.0804974,12.58241606102295 C34.3388308,12.58241606102295 32.7310183,12.11054106102295 30.3679974,13.15012436102295 C28.0049766,14.190228561022948 23.6554974,15.41887436102295 23.2768516,15.513145261022949 C22.8987266,15.60793686102295 27.2476849,13.15012436102295 27.9101849,12.771478561022949 C28.5716433,12.393874361022949 17.6044558,15.229811861022949 15.8081016,19.57877026102295 C14.0112266,23.92877026102295 12.4049766,31.39699936102295 18.5502891,38.203770261022946 C24.6956016,45.01210356102295 35.6622683,45.67304106102295 40.5789349,42.26991606102295 " sketch:type="MSShapeGroup" id="svg_3" fill="#242424" fill-opacity="1"/></g></g></g></svg>