<svg xmlns="http://www.w3.org/2000/svg" xmlns:xlink="http://www.w3.org/1999/xlink" version="1.1" enable-background="new -13 -2.768 72.109 57.732" xml:space="preserve" width="69" height="54"><rect id="backgroundrect" width="100%" height="100%" x="0" y="0" fill="none" stroke="none" class="" style=""/><g class="currentLayer" style=""><title>Layer 1</title><path d="M53.80200012207031,19.22700043487549 c-0.262,-0.09300000000000003 -0.544,-0.14400000000000002 -0.8370000000000001,-0.14400000000000002 H15.912000122070312 c-0.281,0 -0.551,0.04900000000000001 -0.803,0.139 c-8.654,1.065 -15.109,8.321 -15.109,17.111 c0,9.512 7.738,17.25 17.25,17.25 c6.486,0 12.308,-3.572 15.269,-9.232 h3.839 c2.96,5.66 8.782,9.232 15.268,9.232 c9.513,0 17.252,-7.738 17.252,-17.25 C68.87700012207031,27.557000434875487 62.438000122070314,20.30800043487549 53.80200012207031,19.22700043487549 zM51.62500012207031,48.58400043487549 c-5.016,0 -9.472,-3.01 -11.354,-7.6690000000000005 c-0.38200000000000006,-0.9450000000000001 -1.299,-1.5630000000000002 -2.318,-1.5630000000000002 h-7.03 c-1.019,0 -1.936,0.6180000000000001 -2.318,1.5630000000000002 c-1.8820000000000001,4.659 -6.339,7.6690000000000005 -11.355,7.6690000000000005 c-6.755,0 -12.25,-5.495 -12.25,-12.25 c0,-6.38 4.788,-11.621 11.136,-12.192 c0.11800000000000002,-0.011000000000000003 0.234,-0.030000000000000006 0.3470000000000001,-0.05800000000000001 h35.905 c0.11400000000000002,0.027000000000000007 0.232,0.04700000000000001 0.35300000000000004,0.05800000000000001 c6.349,0.5730000000000001 11.137,5.814 11.137,12.192 C63.877000122070314,43.08800043487549 58.38100012207031,48.58400043487549 51.62500012207031,48.58400043487549 z" id="svg_1" class="" fill="#ffffff" fill-opacity="1"/><path d="M23.349000122070315,33.93500043487549 H19.545000122070313 V30.12900043487549 c0,-0.28900000000000003 -0.234,-0.523 -0.523,-0.523 H15.267000122070312 c-0.28900000000000003,0 -0.523,0.234 -0.523,0.523 v3.806 h-3.805 c-0.29000000000000004,0 -0.524,0.233 -0.524,0.523 v3.753 c0,0.28900000000000003 0.234,0.523 0.524,0.523 h3.805 v3.806 c0,0.28800000000000003 0.234,0.523 0.523,0.523 h3.754 c0.28900000000000003,0 0.523,-0.23500000000000001 0.523,-0.523 v-3.806 l3.805,-0.0010000000000000002 c0.29000000000000004,0 0.524,-0.233 0.524,-0.523 V34.45900043487549 C23.873000122070312,34.169000434875485 23.639000122070314,33.93500043487549 23.349000122070315,33.93500043487549 z" id="svg_2" class="" fill="#ffffff" fill-opacity="1"/><circle cx="51.58100128173828" cy="41.33399963378906" r="2.490999937057495" id="svg_3" class="" fill="#ffffff" fill-opacity="1"/><circle cx="51.58100128173828" cy="31.33300018310547" r="2.492000102996826" id="svg_4" class="" fill="#ffffff" fill-opacity="1"/><circle cx="56.582000732421875" cy="36.33300018310547" r="2.492000102996826" id="svg_5" class="" fill="#ffffff" fill-opacity="1"/><path d="M46.581000122070314,33.84100043487549 c-1.377,-0.0010000000000000002 -2.491,1.114 -2.491,2.493 c-0.0010000000000000002,1.375 1.114,2.49 2.491,2.49 c1.377,0.0020000000000000005 2.492,-1.115 2.492,-2.49 C49.07300012207031,34.95800043487549 47.95800012207031,33.84100043487549 46.581000122070314,33.84100043487549 z" id="svg_6" class="" fill="#ffffff" fill-opacity="1"/><path d="M37.62100012207031,13.173000434875489 c1.124,-1.076 2.5860000000000003,-1.577 4.362,-1.508 l11.431000000000001,0.0020000000000000005 c8.179,0 14.833,-5.233 14.833,-11.667 h-5 c0,3.614 -4.503,6.667 -9.833,6.667 H42.14000012207031 c-3.119,-0.11700000000000002 -5.876,0.8800000000000001 -7.979,2.895 c-2.196,2.104 -3.456,5.119 -3.456,8.271 h5 C35.706000122070314,16.06400043487549 36.422000122070315,14.322000434875488 37.62100012207031,13.173000434875489 z" id="svg_7" class="" fill="#ffffff" fill-opacity="1"/></g></svg>